Coordinates
version=1
nRows=13
nColumns=30
inDegrees=yes

Units are S.I. units (second, meters, Newtons, ...)
Angles are in degrees.

endheader
time	floatyaw	floatroll	floatpitch	floatx	floaty	floatz	pro_sup_l	deviation_l	flexion_l	cmc_flexion_l	cmc_abduction_l	mp_flexion_l	ip_flexion_l	2mcp_flexion_l	2mcp_abduction_l	2pm_flexion_l	2md_flexion_l	3mcp_flexion_l	3mcp_abduction_l	3pm_flexion_l	3md_flexion_l	4mcp_flexion_l	4mcp_abduction_l	4pm_flexion_l	4md_flexion_l	5mcp_flexion_l	5mcp_abduction_l	5pm_flexion_l	5md_flexion_l
-0.495000	-160.147433	-5.066637	-73.570646	0.065017	-0.174778	-0.029816	90.567232	-1.127425	-1.305625	13.983070	-2.008144	-24.780804	-41.030224	31.663923	7.546498	42.087146	30.504209	27.100100	4.270888	43.589222	29.385276	16.450288	-4.589035	51.503033	36.554945	-0.448275	-8.104311	63.096893	44.071522
-0.485000	-160.147433	-5.066637	-73.570646	0.065021	-0.174779	-0.029813	90.557553	-1.126963	-1.292181	13.964804	-2.001034	-24.787061	-41.012385	31.654566	7.547117	42.097789	30.512058	27.107928	4.271309	43.563986	29.371574	16.439158	-4.590701	51.509690	36.556117	-0.460559	-8.099771	63.089555	44.071662
-0.475000	-160.147433	-5.066637	-73.570646	0.065026	-0.174784	-0.029808	90.554400	-1.121342	-1.280226	13.949319	-1.993588	-24.797598	-40.993606	31.652175	7.549491	42.103912	30.506815	27.114905	4.271629	43.544294	29.354045	16.430293	-4.590853	51.513833	36.548264	-0.463300	-8.097390	63.074147	44.067699
-0.465000	-160.147433	-5.066637	-73.570646	0.065031	-0.174793	-0.029799	90.555908	-1.111106	-1.269196	13.939324	-1.987650	-24.808480	-40.974414	31.659561	7.551430	42.100175	30.485995	27.117103	4.272035	43.532402	29.335125	16.422441	-4.589262	51.514451	36.531575	-0.459325	-8.097743	63.054269	44.059868
-0.455000	-160.147433	-5.066637	-73.570646	0.065035	-0.174804	-0.029788	90.558106	-1.098532	-1.258946	13.936114	-1.984318	-24.816541	-40.957487	31.677644	7.550900	42.085943	30.452076	27.112811	4.272460	43.529079	29.317480	16.416133	-4.586082	51.509964	36.507949	-0.452861	-8.100459	63.033745	44.049047
-0.445000	-160.147433	-5.066637	-73.570646	0.065038	-0.174817	-0.029778	90.557363	-1.086365	-1.250293	13.938401	-1.984289	-24.820088	-40.946780	31.704423	7.546974	42.067213	30.412454	27.103083	4.272560	43.534675	29.303836	16.413669	-4.581923	51.499720	36.480686	-0.446661	-8.104111	63.015011	44.035787
-0.435000	-160.147433	-5.066637	-73.570646	0.065040	-0.174829	-0.029772	90.552607	-1.076619	-1.244851	13.942643	-1.987974	-24.818800	-40.945248	31.735166	7.540297	42.054792	30.376888	27.090967	4.271917	43.549948	29.296661	16.417536	-4.577739	51.485525	36.453937	-0.440218	-8.106670	62.998422	44.019868
-0.425000	-160.147433	-5.066637	-73.570646	0.065041	-0.174842	-0.029773	90.545969	-1.070170	-1.244163	13.944969	-1.995313	-24.813277	-40.952982	31.763808	7.532923	42.059359	30.353600	27.079807	4.270384	43.575811	29.297551	16.428212	-4.574580	51.472035	36.432100	-0.430434	-8.106404	62.982693	44.000888
-0.415000	-160.147433	-5.066637	-73.570646	0.065040	-0.174852	-0.029781	90.541566	-1.067144	-1.248541	13.943367	-2.005460	-24.804734	-40.967200	31.784907	7.527604	42.085994	30.346027	27.071473	4.268330	43.611921	29.306446	16.442852	-4.573362	51.465477	36.419137	-0.414448	-8.102631	62.966086	43.979476
-0.405000	-160.147433	-5.066637	-73.570646	0.065038	-0.174858	-0.029794	90.543200	-1.067456	-1.256159	13.938338	-2.016631	-24.795021	-40.983911	31.795164	7.526685	42.131202	30.351935	27.065412	4.266608	43.654920	29.321062	16.455746	-4.574682	51.471110	36.417715	-0.392861	-8.095729	62.947676	43.958140
-0.395000	-160.147433	-5.066637	-73.570646	0.065036	-0.174856	-0.029810	90.552084	-1.070967	-1.262728	13.931383	-2.026483	-24.786689	-40.999772	31.793690	7.531011	42.183987	30.365279	27.058865	4.266173	43.697475	29.337065	16.460236	-4.578570	51.490479	36.428279	-0.371312	-8.086531	62.928002	43.940993
-0.385000	-160.147433	-5.066637	-73.570646	0.065033	-0.174841	-0.029827	90.565455	-1.077304	-1.261943	13.922404	-2.032829	-24.782591	-41.012667	31.781158	7.539322	42.230249	30.379540	27.047890	4.267541	43.729119	29.349210	16.450907	-4.584177	51.519628	36.448412	-0.359213	-8.075855	62.908738	43.932220
-0.375000	-160.147433	-5.066637	-73.570646	0.065029	-0.174808	-0.029844	90.576465	-1.085795	-1.246686	13.907981	-2.033895	-24.784755	-41.020771	31.758824	7.548522	42.258174	30.390510	27.028567	4.270357	43.739408	29.353275	16.425124	-4.589636	51.549141	36.472986	-0.365661	-8.064824	62.891595	43.933750
